<svg width="63" height="56" viewBox="0 0 63 56" fill="none" xmlns="http://www.w3.org/2000/svg">
<path d="M5.25537 28.0047C5.25843 39.4833 14.6487 49.2568 27.4025 51.0557V34.748H20.7429V28.0047H27.4104V22.8714C27.1123 20.4389 28.047 18.0147 29.9609 16.2562C31.8749 14.4977 34.5697 13.5871 37.3145 13.7714C39.2847 13.7996 41.2499 13.9556 43.1945 14.238V19.9757H39.8765C38.7342 19.8427 37.5858 20.178 36.7548 20.8872C35.9237 21.5965 35.5 22.6028 35.603 23.6227V28.0047H42.8769L41.714 34.7504H35.603V51.0557C49.396 49.1181 59.0681 37.9208 57.6123 25.5759C56.1566 13.2309 44.0825 4.05986 30.1373 4.70677C16.1921 5.35369 5.25759 15.5921 5.25537 28.0047Z" fill="#FFE27B"/>
</svg>