<svg width="65" height="56" viewBox="0 0 65 56" fill="none" xmlns="http://www.w3.org/2000/svg">
<path d="M32.5054 49.0957C25.8429 49.0957 25.0575 49.0653 22.4575 48.9673C20.4299 48.9099 18.4286 48.5548 16.5397 47.9173C13.2716 46.8216 10.6874 44.5943 9.41683 41.7783C8.70537 40.1451 8.32163 38.4195 8.28204 36.6753C8.13037 34.44 8.13037 33.7073 8.13037 28.0117C8.13037 22.2553 8.16558 21.5833 8.28204 19.355C8.32249 17.6132 8.70622 15.89 9.41683 14.259C10.686 11.4392 13.2744 9.21006 16.5479 8.11766C18.44 7.50213 20.4407 7.17066 22.4629 7.13766C25.0493 7.01166 25.8997 7.01166 32.5054 7.01166C39.222 7.01166 39.9939 7.04199 42.5533 7.13766C44.5807 7.17095 46.5867 7.50238 48.4845 8.11766C51.757 9.2113 54.3449 11.44 55.6156 14.259C56.3391 15.9138 56.7248 17.6639 56.7558 19.432C56.9075 21.6673 56.9075 22.3977 56.9075 28.091C56.9075 33.7843 56.8695 34.531 56.7558 36.7407C56.7155 38.4865 56.3308 40.2136 55.6183 41.8483C54.3445 44.6663 51.7564 46.8943 48.4845 47.9897C46.5894 48.6014 44.5875 48.932 42.5641 48.9673C39.9777 49.0957 39.13 49.0957 32.5054 49.0957ZM32.4133 10.7053C25.7887 10.7053 25.1008 10.7333 22.5143 10.8337C20.9705 10.8513 19.4417 11.0967 17.9941 11.5593C15.8566 12.264 14.1652 13.7153 13.3385 15.554C12.7974 16.8147 12.5125 18.1463 12.4962 19.4903C12.3527 21.7513 12.3527 22.344 12.3527 28.0117C12.3527 33.6117 12.377 34.2907 12.4962 36.5377C12.5205 37.8681 12.8052 39.1855 13.3385 40.4343C14.1664 42.2718 15.8575 43.722 17.9941 44.4267C19.4407 44.8923 20.9702 45.1379 22.5143 45.1523C25.136 45.283 25.8266 45.283 32.4133 45.283C39.0568 45.283 39.7448 45.255 42.3095 45.1523C43.8544 45.1361 45.3844 44.8907 46.8325 44.4267C48.9571 43.7159 50.6375 42.269 51.4637 40.439C52.0038 39.1772 52.2886 37.845 52.306 36.5003H52.3358C52.4522 34.2697 52.4523 33.6747 52.4523 27.9743C52.4523 22.274 52.4225 21.6743 52.306 19.446C52.2817 18.117 51.9969 16.8012 51.4637 15.554C50.6394 13.7213 48.9587 12.2717 46.8325 11.5593C45.3847 11.0944 43.8545 10.8489 42.3095 10.8337C39.6906 10.7053 39.0054 10.7053 32.4133 10.7053ZM32.5054 38.7893C27.4408 38.7922 22.873 36.166 20.9323 32.1357C18.9916 28.1054 20.0603 23.4648 23.64 20.3781C27.2197 17.2914 32.6052 16.3666 37.2849 18.0351C41.9647 19.7036 45.0168 23.6366 45.0179 28C45.0104 33.9525 39.4145 38.7778 32.5054 38.7893ZM32.5054 20.9953C28.0181 20.9953 24.3804 24.1293 24.3804 27.9953C24.3804 31.8613 28.0181 34.9953 32.5054 34.9953C36.9927 34.9953 40.6304 31.8613 40.6304 27.9953C40.62 24.1331 36.9884 21.0043 32.5054 20.9953ZM45.5054 19.3317C43.8951 19.3265 42.5937 18.199 42.5966 16.8117C42.5996 15.4243 43.9059 14.301 45.5162 14.301C47.1265 14.301 48.4328 15.4243 48.4358 16.8117C48.4365 17.481 48.1278 18.123 47.578 18.5959C47.0281 19.0688 46.2823 19.3335 45.5054 19.3317Z" fill="#FFE27B"/>
</svg>