<svg width="63" height="57" viewBox="0 0 63 57" fill="none" xmlns="http://www.w3.org/2000/svg">
<path d="M34.125 49.875H23.625V21.375H34.125V26.125C36.3632 23.5487 39.7573 22.0129 43.3781 21.9379C49.8897 21.9706 55.1439 26.7648 55.1251 32.6562V49.875H44.625V33.8438C44.2051 31.19 41.6896 29.221 38.7266 29.2267C37.4306 29.2638 36.2073 29.7772 35.3389 30.6485C34.4705 31.5197 34.0322 32.6736 34.125 33.8438V49.875ZM18.375 49.875H7.875V21.375H18.375V49.875ZM13.125 16.625C10.2255 16.625 7.875 14.4984 7.875 11.875C7.875 9.25165 10.2255 7.125 13.125 7.125C16.0245 7.125 18.375 9.25165 18.375 11.875C18.375 13.1348 17.8219 14.343 16.8373 15.2338C15.8527 16.1246 14.5174 16.625 13.125 16.625Z" fill="#FFE27B"/>
</svg>