    <svg
      xmlns="http://www.w3.org/2000/svg"
      width="100%"
      height="100%"
      fill="#1d1d1d"
      version="1.1"
      viewBox="0 0 6.35 6.35"
    >
      <g
        fillOpacity="1"
        stroke="none"
        strokeDasharray="none"
        strokeDashoffset="0"
        strokeLinecap="butt"
        strokeLinejoin="miter"
        strokeMiterlimit="4"
        strokeOpacity="1"
        strokeWidth="0.265"
        transform="translate(0 -290.65)"
      >
        <path
          fill="#333"
          d="M1.058 234.105c-.586 0-1.058.472-1.058 1.058v4.233c0 .587.472 1.059 1.058 1.059h4.234c.586 0 1.058-.472 1.058-1.059v-4.233c0-.586-.472-1.058-1.058-1.058zm.795 1.058h2.644c.435 0 .795.358.795.793v2.647c0 .435-.36.792-.795.792H1.853a.798.798 0 01-.795-.792v-2.647c0-.435.36-.793.795-.793zm0 .53a.258.258 0 00-.266.263v2.647c0 .15.114.263.266.263h2.644a.259.259 0 00.266-.263v-2.647a.259.259 0 00-.266-.263zm2.38.264a.265.265 0 01.265.264.265.265 0 01-.265.265.265.265 0 01-.264-.265.265.265 0 01.264-.264zm-1.058.265c.581 0 1.058.477 1.058 1.058 0 .582-.477 1.06-1.058 1.06a1.063 1.063 0 01-1.059-1.06c0-.581.478-1.058 1.059-1.058zm0 .53a.526.526 0 00-.53.528c0 .296.235.53.53.53.295 0 .53-.234.53-.53a.525.525 0 00-.53-.529z"
          opacity="1"
        ></path>
        <path
          fill="#1d1d1d"
          d="M1.058 290.65c-.586 0-1.058.472-1.058 1.058v4.234C0 296.528.472 297 1.058 297h4.234c.586 0 1.058-.472 1.058-1.058v-4.234c0-.586-.472-1.058-1.058-1.058zm.878 1.19h2.478a.75.75 0 01.745.746v2.478a.75.75 0 01-.745.745H1.936a.75.75 0 01-.745-.745v-2.478a.75.75 0 01.745-.745zm0 .497a.244.244 0 00-.25.249v2.478c0 .142.108.25.25.25h2.478c.142 0 .25-.108.25-.25v-2.478a.244.244 0 00-.25-.25zm2.231.248a.248.248 0 01.248.248.248.248 0 01-.248.248.248.248 0 01-.248-.248.248.248 0 01.248-.248zm-.992.248c.545 0 .992.447.992.992a.996.996 0 01-.992.992.996.996 0 01-.992-.992c0-.545.447-.992.992-.992zm0 .495a.493.493 0 00-.496.497c0 .277.22.496.496.496.277 0 .496-.22.496-.496a.493.493 0 00-.496-.497z"
          opacity="1"
        ></path>
      </g>
    </svg>